<?xml version="1.0" encoding="utf-8"?>
<!-- Generator: Adobe Illustrator 29.4.0, SVG Export Plug-In . SVG Version: 9.03 Build 0)  -->
<svg version="1.0" xmlns="http://www.w3.org/2000/svg" xmlns:xlink="http://www.w3.org/1999/xlink" x="0px" y="0px"
	 viewBox="0 0 300 210" style="enable-background:new 0 0 300 210;" xml:space="preserve">
<style type="text/css">
	.st0{fill:#FFFFFF;}
	.st1{fill:#184195;}
	.st2{fill:#00BCE4;}
</style>
<g id="LOGOS">
</g>
<g id="OUT">
	<g>
		<g>
			<g>
				<path class="st1" d="M25.3,109c-5.7,0-11.4-2.2-15.7-6.5c-8.7-8.7-8.7-22.8,0-31.4c8.7-8.7,22.8-8.7,31.4,0l-6.3,6.3
					c-5.2-5.2-13.7-5.2-18.9,0c-5.2,5.2-5.2,13.7,0,18.9c5.2,5.2,13.7,5.2,18.9,0l6.3,6.3C36.7,106.9,31,109,25.3,109z"/>
			</g>
			<polygon class="st1" points="239.2,64.6 203.7,64.6 203.7,73.5 217.1,73.5 217.1,109 225.9,109 225.9,73.5 239.2,73.5 			"/>
			<g>
				<polygon class="st2" points="172.7,91.3 172.7,82.4 141.6,82.4 141.6,64.6 132.7,64.6 132.7,82.4 114.9,82.4 114.9,91.3 
					132.7,91.3 132.7,109 141.6,109 141.6,91.3 				"/>
				<rect x="150.4" y="64.6" class="st2" width="35.5" height="8.9"/>
				<rect x="150.4" y="100.2" class="st2" width="35.5" height="8.9"/>
			</g>
			<path class="st1" d="M101.2,81.5c0-9.3-7.6-16.9-16.9-16.9h-9.8h-8.9v8.9v16v8.9V109h8.9V98.4h8.9l7.1,10.7h10.7l-8.6-12.9
				C97.7,93.3,101.2,87.8,101.2,81.5z M74.5,73.5h9.8c4.4,0,8,3.6,8,8s-3.6,8-8,8h-9.8V73.5z"/>
			<g>
				<polygon class="st1" points="274.3,77.9 287.3,109 296.9,109 278.4,64.7 270.2,64.7 251.8,109 261.4,109 				"/>
			</g>
		</g>
		<g>
			<path class="st1" d="M87.6,131.8c-0.7-0.7-1.4-1.2-2.3-1.6c-0.9-0.4-1.8-0.6-2.7-0.6c-1,0-1.9,0.2-2.7,0.5
				c-0.8,0.4-1.6,0.9-2.2,1.5c-0.6,0.6-1.1,1.4-1.5,2.2c-0.4,0.8-0.5,1.8-0.5,2.7c0,1,0.2,1.9,0.5,2.7c0.4,0.8,0.9,1.6,1.5,2.2
				c0.6,0.6,1.4,1.1,2.2,1.5c0.8,0.4,1.7,0.5,2.7,0.5c0.9,0,1.9-0.2,2.7-0.5c0.9-0.4,1.6-0.9,2.3-1.5l1.2,1.2
				c-0.6,0.5-1.2,1-1.9,1.4c-0.7,0.4-1.4,0.7-2.2,0.9c-0.7,0.2-1.5,0.3-2.3,0.3c-1.2,0-2.4-0.2-3.5-0.7c-1.1-0.4-2-1.1-2.8-1.9
				c-0.8-0.8-1.4-1.7-1.9-2.8c-0.5-1.1-0.7-2.2-0.7-3.4c0-1.2,0.2-2.3,0.7-3.4c0.5-1,1.1-2,1.9-2.8c0.8-0.8,1.8-1.4,2.8-1.9
				c1.1-0.4,2.2-0.7,3.5-0.7c0.8,0,1.5,0.1,2.3,0.3c0.7,0.2,1.5,0.5,2.1,0.8c0.7,0.4,1.3,0.8,1.8,1.3L87.6,131.8z"/>
			<path class="st1" d="M99.5,145.2l6.8-17.1h2l6.9,17.1h-1.9l-6.2-15.3h0.2l-6.1,15.3H99.5z"/>
			<path class="st1" d="M134,128.1c2.1,0,3.8,0.5,4.9,1.5c1.2,1,1.7,2.4,1.7,4.2c0,1.9-0.6,3.3-1.7,4.4c-1.2,1-2.8,1.5-4.9,1.5h-5.3
				l0.9-0.9v6.3h-2v-17.1H134z M133.9,138.1c1.5,0,2.7-0.4,3.6-1.1c0.8-0.7,1.3-1.7,1.3-3.1c0-1.3-0.4-2.3-1.3-3c-0.8-0.7-2-1-3.6-1
				h-5.2l0.9-0.9v9.9l-0.9-0.9H133.9z"/>
			<path class="st1" d="M152.4,128.1h2v17.1h-2V128.1z"/>
			<path class="st1" d="M165.8,128.1h13.1v1.7h-5.6v15.4h-2v-15.4h-5.6V128.1z"/>
			<path class="st1" d="M188.9,145.2l6.8-17.1h2l6.9,17.1h-1.9l-6.2-15.3h0.2l-6.1,15.3H188.9z"/>
			<path class="st1" d="M216.9,128.1h2v15.4h7.5v1.7h-9.4V128.1z"/>
		</g>
	</g>
</g>
</svg>
